<svg width="139" height="51" xmlns="http://www.w3.org/2000/svg"><g fill="none" fill-rule="evenodd"><path d="M123.754 14.04c-.909 0-1.292.832-1.359 1.426h2.575c.01-.536-.23-1.427-1.216-1.427zm-57.447 3.206c0 .574.373.842.842.842.603 0 1.024-.383 1.168-.804.028-.115.028-.22.028-.325v-.804c-1.043-.01-2.038.2-2.038 1.09zm28.427-3.15c-1.044 0-1.465 1.025-1.465 1.992 0 1.139.565 1.981 1.446 1.981.842 0 1.435-.814 1.435-2 0-.91-.411-1.972-1.416-1.972zm-9.926-.057c-.91 0-1.302.833-1.359 1.427h2.565c.02-.536-.22-1.427-1.206-1.427zm-10.634.144c-.603 0-1.148.43-1.311 1.082-.02.105-.048.239-.048.383v.947c0 .124.02.24.038.345.154.603.67 1.033 1.312 1.033.919 0 1.483-.727 1.483-1.914 0-1.034-.488-1.876-1.474-1.876zm52.155 19.095h-7.571c.029 1.12.392 1.972 1.091 2.565.641.536 1.465.795 2.48.795 1.119 0 2.143-.173 3.062-.536l.392 1.751c-1.072.47-2.345.699-3.809.699-1.761 0-3.14-.517-4.144-1.55-1.005-1.034-1.513-2.422-1.513-4.164 0-1.723.47-3.14 1.407-4.288.986-1.206 2.307-1.819 3.972-1.819 1.637 0 2.881.613 3.714 1.819.67.976 1.005 2.163 1.005 3.59 0 .44-.029.822-.086 1.138zm-10.414-17.774v3.503h-1.483v-8.519h1.483v3.465h.02c.181-.277.43-.507.727-.66.306-.163.65-.259 1.024-.259.995 0 2.048.651 2.048 2.527v3.446h-1.483v-3.283c0-.842-.316-1.493-1.13-1.493-.574 0-.986.383-1.148.833a1.292 1.292 0 0 0-.058.44zm-.383 13.706a5.228 5.228 0 0 0-.794-.067c-.89 0-1.58.335-2.058 1.005-.421.594-.632 1.33-.632 2.24v5.953h-2.526V30.56c0-1.302-.02-2.489-.067-3.57h2.201l.086 2.182h.077c.258-.756.68-1.35 1.254-1.8a3.044 3.044 0 0 1 1.828-.612c.23 0 .44.02.631.048v2.402zm-6.48-16.051h.833v-1.091l1.446-.412v1.503h1.407v1.11h-1.407v2.584c0 .718.191 1.072.756 1.072.268 0 .411-.01.584-.057l.019 1.12c-.21.086-.613.153-1.072.153-.546 0-.996-.182-1.264-.479-.325-.335-.469-.88-.469-1.646V14.27h-.832v-1.11zm-2.603 23.718c-1.053 1.148-2.44 1.723-4.163 1.723-1.666 0-2.996-.546-3.992-1.656-.986-1.1-1.474-2.498-1.474-4.183 0-1.751.508-3.197 1.532-4.317 1.014-1.129 2.383-1.684 4.115-1.684 1.675 0 3.015.555 4.02 1.656.967 1.072 1.455 2.47 1.455 4.163 0 1.742-.497 3.178-1.493 4.298zM94.667 19.14c-1.637 0-2.93-1.13-2.93-3.015 0-1.924 1.264-3.092 3.025-3.092 1.742 0 2.91 1.216 2.91 2.996 0 2.154-1.512 3.111-3.005 3.111zm1.426 9.744h-2.785v5.513c0 1.407.497 2.096 1.474 2.096.45 0 .823-.029 1.12-.105l.076 1.904c-.498.192-1.158.288-1.962.288-.996 0-1.77-.297-2.336-.91-.564-.603-.842-1.627-.842-3.063v-5.723h-1.665V26.99h1.665v-2.077l2.47-.747v2.824h2.785v1.895zM87.2 37.202c-1.034.92-2.46 1.379-4.288 1.379-1.704 0-3.063-.326-4.087-.986l.593-2.096c1.101.65 2.317.976 3.638.976.947 0 1.684-.21 2.22-.641.527-.422.785-.996.785-1.723 0-.632-.21-1.168-.641-1.608-.45-.43-1.168-.833-2.183-1.216-2.747-1.024-4.125-2.527-4.125-4.498 0-1.293.479-2.355 1.455-3.178.976-.823 2.259-1.244 3.867-1.244 1.436 0 2.622.248 3.58.746l-.642 2.058c-.89-.479-1.895-.727-3.015-.727-.89 0-1.589.23-2.096.66-.421.392-.632.861-.632 1.426 0 .613.25 1.13.728 1.541.421.373 1.187.775 2.287 1.216 1.36.536 2.345 1.177 2.996 1.914.632.727.957 1.637.957 2.728 0 1.34-.469 2.431-1.397 3.273zM74.5 19.142c-.756 0-1.426-.288-1.848-1.006h-.028l-.067.871h-1.264c.029-.392.048-1.043.048-1.637v-6.882h1.474v3.475h.029c.354-.565.995-.929 1.876-.929 1.426 0 2.44 1.187 2.431 2.958 0 2.106-1.33 3.15-2.651 3.15zm-1.733 17.965c-.938.995-2.105 1.493-3.503 1.493-1.503 0-2.584-.536-3.235-1.608v5.963h-2.527V30.723c0-1.216-.029-2.46-.096-3.733h2.221l.144 1.8h.047c.843-1.35 2.116-2.03 3.829-2.03 1.34 0 2.46.526 3.35 1.589.9 1.053 1.35 2.45 1.35 4.183 0 1.943-.527 3.455-1.58 4.575zm-9.849-26.628h-1.483v8.528h1.483V10.48zm-2.622 26.628c-.938.995-2.106 1.493-3.503 1.493-1.503 0-2.585-.536-3.236-1.608v5.963h-2.526V30.723c0-1.216-.03-2.46-.096-3.733h2.22l.134 1.8h.048c.843-1.35 2.125-2.03 3.838-2.03 1.34 0 2.45.526 3.35 1.589.89 1.053 1.34 2.45 1.34 4.183 0 1.943-.516 3.455-1.57 4.575zm-9.878-19.708c0-1.464 1.302-2.22 3.465-2.21v-.097c0-.383-.153-1.014-1.187-1.014-.574 0-1.177.172-1.57.43l-.287-.966c.43-.259 1.187-.508 2.106-.508 1.876 0 2.421 1.187 2.421 2.47v2.106c0 .526.02 1.043.096 1.397h-1.34l-.105-.641h-.038c-.345.45-.958.775-1.723.775-1.178 0-1.838-.852-1.838-1.742zm-3.044 1.608H45.92l-2.172-5.848h1.598l.948 2.967c.172.517.287.986.392 1.464h.038c.106-.478.24-.938.402-1.464l.929-2.967h1.55l-2.23 5.848zM46.8 38.341l-1.464-4.613h-5.121l-1.407 4.613h-2.613l5.063-15.745h3.14l5.092 15.745H46.8zm-17.832-.584a2.586 2.586 0 0 1-2.584 2.585H15.291a2.586 2.586 0 0 1-2.584-2.584V13.11a2.594 2.594 0 0 1 2.584-2.594h11.093a2.594 2.594 0 0 1 2.584 2.594v24.647zm9.84-26.838h1.885l2.633 8.088h-1.599l-.737-2.288h-2.555l-.69 2.288h-1.531l2.594-8.088zm20.31 2.24h-1.474v5.848h1.474V13.16zm-.727-2.431c.507 0 .814.344.833.804 0 .43-.326.794-.843.794-.497 0-.823-.364-.823-.794 0-.46.335-.804.833-.804zm8.73 3.35c-.575 0-1.178.172-1.57.43l-.288-.966c.431-.259 1.187-.508 2.116-.508 1.866 0 2.412 1.187 2.412 2.47v2.106c0 .526.028 1.043.095 1.397h-1.33l-.115-.641h-.029c-.354.45-.966.775-1.732.775-1.177 0-1.838-.852-1.838-1.742 0-1.464 1.311-2.22 3.475-2.21v-.097c0-.383-.163-1.014-1.197-1.014zm13.189-3.59h-1.474v8.529h1.474v-8.529zm4.575 2.546c1.904 0 2.527 1.56 2.527 2.843 0 .278-.02.488-.048.622h-3.915c.038 1.053.852 1.513 1.8 1.513a4.58 4.58 0 0 0 1.627-.268l.21 1.014c-.507.22-1.196.373-2.039.373-1.895 0-3.015-1.167-3.015-2.957 0-1.618.986-3.14 2.853-3.14zm15.515.125l.077.88h.038c.258-.459.9-1.005 1.866-1.005 1.024 0 2.077.651 2.077 2.508v3.465h-1.474v-3.302c0-.833-.316-1.474-1.12-1.474-.583 0-.995.421-1.148.861a1.417 1.417 0 0 0-.077.47v3.445h-1.474v-4.106c0-.67-.028-1.235-.048-1.742h1.283zm23.44-.125c1.896 0 2.518 1.56 2.518 2.843 0 .278-.02.488-.048.622h-3.915c.038 1.053.862 1.513 1.81 1.513.679 0 1.157-.106 1.617-.268l.21 1.014c-.497.22-1.196.373-2.038.373-1.896 0-3.015-1.167-3.015-2.957 0-1.618.985-3.14 2.861-3.14zm-83.72.575a27.845 27.845 0 0 1-.412-1.513h-.02c-.124.47-.258 1.034-.392 1.513l-.622 1.99h2.077l-.632-1.99zm13.763 3.675c.038-.115.038-.22.038-.325v-.804c-1.043-.01-2.048.2-2.048 1.09 0 .575.383.843.842.843.603 0 1.024-.383 1.168-.804zm67.622 11.199c-.823 0-1.484.354-2 1.033a3.663 3.663 0 0 0-.747 1.963h5.255c.01-.747-.153-1.388-.488-1.943-.44-.7-1.11-1.053-2.02-1.053zm-78.744-3.78h-.048c-.163.67-.402 1.655-.747 2.966l-1.31 4.116h4.23l-1.33-4.116c-.144-.42-.412-1.407-.795-2.967zm26.072 4.057c-.631 0-1.186.21-1.694.622a2.888 2.888 0 0 0-.995 1.628 3.437 3.437 0 0 0-.115.775v1.895c0 .823.249 1.522.756 2.087.507.564 1.168.852 1.972.852.957 0 1.694-.364 2.22-1.101.536-.728.795-1.694.795-2.9 0-1.101-.249-2.01-.747-2.728-.545-.747-1.282-1.13-2.192-1.13zm33.539-.153c-1.005 0-1.78.45-2.307 1.35-.45.746-.68 1.646-.68 2.728 0 1.043.23 1.933.68 2.68.546.9 1.311 1.34 2.288 1.34.966 0 1.722-.45 2.258-1.379.479-.746.709-1.646.709-2.69 0-1.033-.22-1.933-.67-2.68-.546-.899-1.292-1.349-2.278-1.349zm-46.02.153c-.622 0-1.187.21-1.694.623-.507.42-.833.957-.995 1.627a3.341 3.341 0 0 0-.106.775v1.895c0 .823.25 1.522.757 2.087.497.564 1.158.852 1.971.852.948 0 1.694-.364 2.22-1.101.527-.728.795-1.694.795-2.9 0-1.101-.249-2.01-.746-2.728-.555-.747-1.283-1.13-2.202-1.13zM27.4 15.724H14.276v19.41H27.4v-19.41zm-6.557 20.56c-.746 0-1.34.603-1.34 1.34a1.336 1.336 0 0 0 2.67 0c0-.737-.593-1.34-1.33-1.34zM19.55 13.752h2.575a.315.315 0 0 0 .306-.306.315.315 0 0 0-.306-.306H19.55a.315.315 0 0 0-.306.306c0 .163.143.306.306.306z" fill="#FFF"/><path d="M131.719 49.876H7.395c-3.637 0-6.594-2.958-6.594-6.585V7.56C.8 3.923 3.758.975 7.395.975H131.72c3.637 0 6.594 2.948 6.594 6.586v35.73c0 3.627-2.957 6.585-6.594 6.585" stroke="#FFF"/></g></svg>