<svg width="153" height="51" xmlns="http://www.w3.org/2000/svg"><g fill="none" fill-rule="evenodd"><path d="M144.812 49.876H8.21c-4.02 0-7.284-3.274-7.284-7.294V7.886C.925 3.866 4.19.593 8.21.593h136.603c4.02 0 7.284 3.273 7.284 7.293v34.696c0 4.02-3.264 7.294-7.284 7.294" stroke="#FFF"/><path d="M49.07 13.258c-.344-1.052-.517-1.617-.517-1.703h-.047c0 .076-.182.641-.546 1.703h1.11zm1.417 1.723H49.5c0-.134-.086-.517-.278-1.139h-1.407c-.19.613-.287.996-.287 1.14h-.919c0-.077.24-.728.718-1.953.47-1.225.709-1.895.709-2.02h1.158c0 .115.21.775.641 1.991.43 1.206.65 1.876.65 1.981zM54.417 14.983h-.756c0-.086-.278-.526-.842-1.32-.584-.843-.91-1.417-.996-1.723h-.048c.048.44.077.842.077 1.206 0 .497.01 1.11.038 1.837h-.746c.028-.631.047-1.32.047-2.077 0-.746-.019-1.378-.047-1.895h.909c0 .105.249.536.746 1.292.536.795.843 1.34.929 1.627h.038c-.048-.459-.067-.861-.067-1.225a34 34 0 0 0-.048-1.694h.766c-.029.498-.038 1.13-.038 1.895 0 .766.01 1.455.038 2.077M58.011 12.988c0-.393-.115-.718-.345-.986-.22-.268-.574-.402-1.043-.402-.086 0-.2.01-.354.028.02.402.029.833.029 1.273 0 .489.01.967.028 1.446.134.028.268.038.402.038.431 0 .757-.134.967-.402.21-.278.316-.603.316-.995m.833-.134c0 .583-.182 1.081-.555 1.521-.374.431-.89.642-1.56.642-.297 0-.709-.01-1.245-.039.029-.612.038-1.301.038-2.077 0-.737-.01-1.368-.038-1.895h.536c.086 0 .22 0 .393-.01.172-.009.287-.009.335-.009.737 0 1.273.182 1.598.555.335.364.498.804.498 1.312M61.777 12.175c0-.402-.258-.603-.784-.603-.192 0-.355.01-.498.038.019.316.029.728.029 1.235h.287c.64 0 .966-.22.966-.67m1.149 2.804h-.91c-.23-.717-.41-1.158-.535-1.33-.134-.172-.335-.249-.613-.249h-.344c0 .527.01 1.053.028 1.58H59.7c.03-.613.048-1.302.048-2.078 0-.737-.019-1.368-.048-1.895h.536c.058 0 .182 0 .383-.01.192-.009.374-.009.536-.009.938 0 1.398.326 1.398.957 0 .508-.268.862-.795 1.063v.048c.201.057.383.21.536.478.163.259.364.747.632 1.445M66.46 13.012c0-.431-.105-.776-.325-1.044-.22-.258-.488-.392-.804-.392-.296 0-.555.134-.765.402-.201.268-.307.603-.307 1.005 0 .43.106.775.326 1.043.22.259.488.393.804.393.296 0 .555-.134.765-.402.201-.268.307-.603.307-1.005m.842-.096c0 .632-.191 1.148-.574 1.56a1.849 1.849 0 0 1-1.417.613c-.536 0-.986-.182-1.35-.565-.363-.373-.545-.852-.545-1.436 0-.632.191-1.148.574-1.56a1.849 1.849 0 0 1 1.417-.613c.536 0 .986.192 1.35.565.363.373.545.852.545 1.436M69.026 14.983h-.862c.03-.631.039-1.32.039-2.077 0-.746-.01-1.378-.039-1.895h.862a35.167 35.167 0 0 0-.038 1.895c0 .766.01 1.455.038 2.077M72.62 12.988c0-.393-.115-.718-.345-.986-.23-.268-.574-.402-1.043-.402-.086 0-.21.01-.354.028.019.402.029.833.029 1.273 0 .489.01.967.028 1.446.134.028.268.038.393.038.44 0 .765-.134.976-.402.21-.278.316-.603.316-.995m.833-.134c0 .583-.182 1.081-.556 1.521-.373.431-.89.642-1.56.642-.296 0-.708-.01-1.244-.039.029-.612.038-1.301.038-2.077 0-.737-.01-1.368-.038-1.895h.536c.086 0 .22 0 .392-.01.173-.009.288-.009.335-.009.737 0 1.273.182 1.599.555.335.364.498.804.498 1.312M77.915 13.258c-.345-1.052-.517-1.617-.517-1.703h-.057c0 .076-.173.641-.536 1.703h1.11zm1.407 1.723h-.976c0-.134-.087-.517-.278-1.139H76.66c-.191.613-.287.996-.287 1.14h-.92c0-.077.24-.728.71-1.953.478-1.225.717-1.895.717-2.02h1.149c0 .115.22.775.65 1.991.431 1.206.642 1.876.642 1.981zM82.098 12.217c0-.44-.287-.65-.861-.65-.153 0-.306.009-.46.047.02.383.03.814.03 1.302.047 0 .114.01.181.01.737 0 1.11-.24 1.11-.709m.785-.172c0 .488-.182.852-.536 1.081-.363.23-.804.345-1.33.345h-.201c0 .383.01.89.029 1.512h-.862c.029-.593.038-1.282.038-2.077 0-.737-.01-1.368-.038-1.895h.536c.077 0 .22-.01.43-.01.211-.009.403-.009.556-.009.392 0 .718.086.986.258.258.173.392.44.392.795M85.758 12.217c0-.44-.288-.65-.862-.65-.143 0-.297.009-.46.047.02.383.03.814.03 1.302.057 0 .114.01.181.01.747 0 1.11-.24 1.11-.709m.785-.172c0 .488-.172.852-.536 1.081-.363.23-.804.345-1.33.345h-.2c0 .383.009.89.028 1.512h-.852a50.85 50.85 0 0 0 0-3.972h.526c.077 0 .22-.01.431-.01.22-.009.402-.009.555-.009.393 0 .718.086.986.258.268.173.392.44.392.795M91.693 13.012c0-.431-.105-.776-.326-1.044-.22-.258-.488-.392-.804-.392-.296 0-.555.134-.756.402-.21.268-.316.603-.316 1.005 0 .43.115.775.335 1.043.211.259.479.393.804.393.297 0 .546-.134.757-.402.2-.268.306-.603.306-1.005m.842-.096c0 .632-.191 1.148-.574 1.56a1.849 1.849 0 0 1-1.417.613c-.536 0-.986-.182-1.35-.565-.363-.373-.545-.852-.545-1.436 0-.632.192-1.148.574-1.56a1.863 1.863 0 0 1 1.417-.613c.546 0 .995.192 1.35.565.363.373.545.852.545 1.436M96.675 14.983h-.756c0-.086-.278-.526-.833-1.32-.593-.843-.919-1.417-1.005-1.723h-.048c.048.44.077.842.077 1.206 0 .497.01 1.11.038 1.837H93.4c.03-.631.048-1.32.048-2.077 0-.746-.019-1.378-.048-1.895h.9c0 .105.259.536.756 1.292.536.795.843 1.34.929 1.627h.048a9.756 9.756 0 0 1-.077-1.225 34 34 0 0 0-.048-1.694h.766c-.029.498-.038 1.13-.038 1.895 0 .766.01 1.455.038 2.077M59.973 27.719c0 1.972-.584 3.541-1.751 4.719-1.33 1.388-3.063 2.086-5.198 2.086-2.038 0-3.77-.708-5.197-2.125-1.426-1.407-2.144-3.168-2.144-5.254 0-2.087.718-3.848 2.144-5.255 1.426-1.417 3.159-2.125 5.197-2.125 1.015 0 1.982.201 2.91.594.919.392 1.656.918 2.201 1.579l-1.244 1.244c-.928-1.12-2.22-1.684-3.867-1.684-1.483 0-2.766.526-3.857 1.57-1.082 1.052-1.627 2.411-1.627 4.077 0 1.675.545 3.024 1.627 4.077 1.091 1.043 2.374 1.57 3.857 1.57 1.58 0 2.9-.527 3.953-1.58.68-.689 1.072-1.646 1.178-2.861h-5.13v-1.704h6.852c.067.373.096.727.096 1.072M63.478 31.911c.622.642 1.36.957 2.22.957.853 0 1.6-.315 2.221-.957.623-.641.938-1.483.938-2.536s-.316-1.895-.938-2.537c-.622-.64-1.368-.957-2.22-.957-.862 0-1.599.316-2.22.957-.623.642-.939 1.484-.939 2.537s.316 1.895.938 2.536m-1.35-6.212c.93-.985 2.126-1.474 3.57-1.474 1.446 0 2.633.489 3.57 1.474.939.977 1.398 2.202 1.398 3.676 0 1.474-.46 2.699-1.397 3.685-.938.976-2.125 1.464-3.57 1.464-1.445 0-2.642-.488-3.57-1.464-.938-.986-1.398-2.211-1.398-3.685 0-1.474.46-2.7 1.398-3.676M74.032 31.911c.631.642 1.368.957 2.22.957.852 0 1.599-.315 2.22-.957.623-.641.939-1.483.939-2.536s-.316-1.895-.938-2.537c-.622-.64-1.369-.957-2.22-.957-.853 0-1.59.316-2.221.957-.622.642-.938 1.484-.938 2.537s.316 1.895.938 2.536m-1.35-6.212c.929-.985 2.125-1.474 3.57-1.474 1.446 0 2.642.489 3.57 1.474.938.977 1.407 2.202 1.407 3.676 0 1.474-.469 2.699-1.407 3.685-.928.976-2.124 1.464-3.57 1.464-1.445 0-2.641-.488-3.57-1.464-.938-.986-1.397-2.211-1.397-3.685 0-1.474.46-2.7 1.397-3.676M86.73 32.87c.851 0 1.578-.316 2.181-.948.603-.632.9-1.484.9-2.546 0-1.063-.297-1.914-.9-2.546-.603-.632-1.33-.948-2.182-.948-.842 0-1.56.316-2.173.957-.603.642-.9 1.484-.9 2.537s.297 1.895.9 2.536c.613.632 1.33.957 2.173.957m-.134 5.916c-1.148 0-2.077-.288-2.804-.852-.728-.575-1.245-1.235-1.56-1.972l1.655-.69c.182.527.527.968 1.015 1.322a2.79 2.79 0 0 0 1.694.536c.996 0 1.78-.297 2.355-.9.574-.593.861-1.407.861-2.431v-.929h-.086c-.316.47-.756.862-1.34 1.178-.574.316-1.225.478-1.953.478-1.244 0-2.325-.497-3.235-1.483-.909-.986-1.359-2.202-1.359-3.666 0-1.465.45-2.68 1.36-3.676.909-.985 1.99-1.474 3.234-1.474.728 0 1.379.154 1.953.47.584.315 1.024.708 1.34 1.186h.086v-1.34h1.733v9.17c0 1.665-.479 2.919-1.436 3.78-.967.862-2.135 1.293-3.513 1.293M95.078 20.084H93.26V34.21h1.818zM103.68 28.214c-.038-.555-.297-1.082-.756-1.58-.469-.497-1.168-.746-2.087-.746-.67 0-1.253.21-1.742.632-.497.42-.832.986-1.014 1.694h5.6zm-2.603 6.317c-1.465 0-2.652-.488-3.56-1.464-.92-.977-1.37-2.202-1.37-3.695 0-1.407.44-2.613 1.33-3.628.881-1.014 2.02-1.521 3.399-1.521 1.435 0 2.584.469 3.445 1.407.862.938 1.293 2.182 1.293 3.742l-.02.345h-7.638c.058.966.383 1.742.977 2.306.603.565 1.301.843 2.105.843 1.302 0 2.183-.546 2.642-1.656l1.618.67c-.316.756-.833 1.378-1.56 1.885-.718.508-1.608.766-2.661.766zM112.757 26.751h3.043c.757 0 1.37-.258 1.829-.775.459-.507.698-1.072.698-1.694 0-.622-.239-1.187-.698-1.694-.46-.517-1.072-.776-1.829-.776h-3.043v4.94zm0 7.456h-1.819V20.08h4.815c1.196 0 2.24.402 3.11 1.196.871.795 1.312 1.8 1.312 3.006 0 1.215-.44 2.21-1.312 3.015-.87.794-1.914 1.187-3.11 1.187h-2.996v5.723zM123.17 20.084h-1.818V34.21h1.818zM128.147 32.87c.746 0 1.435-.278 2.048-.843.603-.555.91-1.215.91-1.981-.508-.421-1.283-.632-2.308-.632-.88 0-1.54.192-1.99.574-.45.383-.67.824-.67 1.34 0 .479.2.852.612 1.12a2.41 2.41 0 0 0 1.398.421m-.297 1.656c-1.024 0-1.886-.296-2.575-.89-.689-.593-1.034-1.369-1.034-2.345 0-1.053.412-1.876 1.226-2.479.813-.593 1.818-.9 3.015-.9 1.062 0 1.943.201 2.622.594v-.278c0-.708-.24-1.273-.727-1.703-.488-.431-1.082-.642-1.79-.642-.536 0-1.005.125-1.436.374-.43.248-.718.593-.88 1.033l-1.656-.718c.22-.574.66-1.11 1.32-1.608.661-.488 1.532-.737 2.604-.737 1.244 0 2.268.364 3.082 1.082.814.727 1.225 1.742 1.225 3.063v5.838h-1.742v-1.34h-.076c-.718 1.101-1.78 1.656-3.178 1.656M136.788 38.472h-1.876l2.249-4.871-3.982-9.055h1.972l2.881 6.94h.038l2.805-6.94h1.971z" fill="#FFF"/><g fill="#FFF"><path d="M11.83 26.905V13.371c0-.555.106-1.062.498-1.483.154-.163.268-.201.45-.02a4171.76 4171.76 0 0 0 9.122 9.285c1.972 2 3.943 4.01 5.925 6.001.191.192.21.297 0 .498-4.834 4.814-9.677 9.629-14.492 14.453-.296.297-.507.268-.784.048-.517-.393-.718-.929-.718-1.56v-8.021c-.01-1.886 0-3.781 0-5.667M13.565 11.376c.373 0 .632.105.88.249C20.63 15.08 26.803 18.545 32.996 22c.278.163.278.249.058.47a555.55 555.55 0 0 0-4.126 4.096c-.153.153-.239.239-.44.038-4.91-5.016-9.84-10.021-14.76-15.037-.047-.038-.076-.086-.162-.191M14.948 41.997c4.49-4.537 8.969-9.064 13.448-13.61.278-.288.412-.25.66.009a298.97 298.97 0 0 0 3.446 3.522c.201.201.22.287-.057.44-5.753 3.15-11.505 6.308-17.267 9.466-.086.058-.182.144-.23.173M40.574 27.032c-.02.507-.259.861-.622 1.13-.268.2-.565.363-.852.526-1.742.966-3.494 1.914-5.226 2.88-.24.135-.374.125-.565-.076a700.493 700.493 0 0 0-3.742-3.8c-.182-.182-.192-.287 0-.469 1.464-1.436 2.91-2.89 4.364-4.345.163-.163.287-.192.498-.067 1.723.976 3.455 1.933 5.178 2.9.536.306.948.689.967 1.32"/></g></g></svg>